<?xml version="1.0" encoding="utf-8"?>
<!-- Generator: Adobe Illustrator 28.0.0, SVG Export Plug-In . SVG Version: 6.00 Build 0)  -->
<svg version="1.1" id="Layer_1" xmlns="http://www.w3.org/2000/svg" xmlns:xlink="http://www.w3.org/1999/xlink" x="0px" y="0px"
	 viewBox="0 0 270 120" style="enable-background:new 0 0 270 120;" xml:space="preserve">
<style type="text/css">
	.st0{fill:#33006F;}
</style>
<g id="u9hLk4.tif">
	<g>
		<path class="st0" d="M170.89,76.04c5.82-6.9,12.58-12.54,20.44-16.79c3.53-1.91,7.17-1.81,10.55,0.33
			c7.41,4.7,14.27,10.09,20.24,16.51c0.38,0.41,0.46,1.45,0.22,2c-3.73,8.53-7.53,17.03-11.31,25.54c-0.22,0.5-0.4,1-0.66,1.68
			c5.11,0,10.03,0.01,14.96-0.02c0.29,0,0.6-0.35,0.86-0.58c0.15-0.14,0.19-0.4,0.28-0.6c1.74-4.07,1.74-4.07,6.43-3.53
			c-0.09,0.46-0.11,0.94-0.26,1.37c-1.98,5.68-6.2,8.51-11.94,9.78c-4.49,1-8.61-0.39-12.82-1.24c-4.21-0.85-8.39-1.89-12.59-2.81
			c-3.57-0.78-7.12-0.55-10.63,0.49c-2.73,0.81-5.48,1.58-8.21,2.34c-5.36,1.51-10.83-0.23-13.99-4.45
			c-0.19-0.26-0.35-0.55-0.53-0.84c1.65-0.32,3.26-0.5,4.77-0.96c5.99-1.83,8.78-7.54,6.66-13.41c-0.23-0.62-0.33-1.3-0.33-1.94
			c-0.03-2.91-0.01-5.81-0.01-8.7C173.04,77.59,173.04,77.59,170.89,76.04z M205.53,92.78c-0.1,0-0.19,0.01-0.3,0.01
			c-0.22-0.67-0.44-1.34-0.64-2.02c-1.25-4.49-2.51-8.99-3.75-13.49c-0.55-2.01-2.19-1.7-3.68-1.73c-1.34-0.03-1.78,0.73-2.07,1.92
			c-1.16,4.75-2.41,9.48-3.63,14.22c-0.09,0.35-0.26,0.66-0.39,0.99c-0.12,0-0.24,0-0.36,0c-1.06-4-2.12-7.99-3.19-12.06
			c1.17-0.14,2.15-0.26,3.14-0.37c0-1.5,0-2.87,0-4.3c-4.6,0-9.12,0-13.68,0c0,1.59,0,3.08,0,4.76c3.2-0.58,3.49,1.67,4.05,3.84
			c1.18,4.56,2.46,9.1,3.75,13.64c0.89,3.14,1.17,3.33,4.37,3.48c0.39,0.02,0.79,0.04,1.17,0.11c1.67,0.31,2.94-0.43,3.38-2.06
			c0.28-1.02,0.51-2.05,0.77-3.08c0.62-2.44,1.24-4.88,1.86-7.32c0.48,0.49,0.67,0.92,0.79,1.38c0.7,2.69,1.4,5.38,2.08,8.08
			c0.62,2.42,1.18,2.87,3.75,2.85c0.9-0.01,1.8-0.1,2.69-0.05c1.37,0.09,2.01-0.55,2.32-1.85c1.32-5.51,2.72-10.99,4.04-16.5
			c0.48-2,1.25-3.6,3.66-3.43c0-1.49,0-2.85,0-4.19c-3.42,0-6.7,0-9.95,0c0,1.53,0,2.96,0,4.42c1.03,0.13,1.93,0.24,2.99,0.38
			C207.62,84.68,206.58,88.73,205.53,92.78z"/>
		<path class="st0" d="M195.5,30.52c0.32-5.55,2.04-11.86,5.69-17.6c2.62-4.14,6.48-6.8,10.91-8.54c1.31-0.52,3.34-0.24,4.64,0.43
			c5.67,2.92,8.26,8.06,9.01,14.06c1.36,11.02-2.69,19.99-11.13,27.04c-5.58,4.67-12.65,3.3-16.29-2.98
			C196.55,39.86,195.49,35.66,195.5,30.52z"/>
		<path class="st0" d="M162.52,28.82c0.25-6.08,0.89-11.47,2.99-16.62c3.11-7.59,8.2-8.77,14.22-3.23
			c6.13,5.65,10.65,12.25,12.6,20.5c1.9,8.04-3.34,16.24-9.54,18.99c-3.51,1.56-7,1.47-10.27-0.59c-5.71-3.6-8.87-8.85-9.71-15.48
			C162.66,31.02,162.59,29.62,162.52,28.82z"/>
		<path class="st0" d="M230.85,73.92c-1.5-0.1-3.07,0.04-4.49-0.32c-2.44-0.64-4.02-2.46-4.86-4.74
			c-4.15-11.23,0.05-27.17,13.42-32.28c4.55-1.74,7.78-1,10.94,2.68c3.54,4.13,4.46,9.04,4.11,14.23
			c-0.38,5.63-2.65,10.55-6.29,14.83C240.35,72.24,236.19,74.43,230.85,73.92z"/>
		<path class="st0" d="M170.54,65.93c0,0,0.06,4.22-1.84,7.86c-0.45,0.86-0.94,0.99-1.97,0.92c-2.34-0.16-7.19-1.23-10.51-0.28
			c-1.6,0.45-3.18,1.44-3.97,1.95c-0.29,0.19-0.42,0.29-0.42,0.29l0,0c0,0-4.3-2.56-7.05-6.5c0,0-2.34-3.36-3.59-8.75
			c-0.17-0.77-0.3-1.51-0.3-1.51c-0.65-3.62-0.33-7.11,0.76-10.54c1.65-5.15,6.89-9.32,11.51-9.41c2.35-0.04,4.24,0.93,5.88,2.46
			c1.48,1.39,10.25,10.04,11.38,20.33C170.56,64.09,170.55,65.14,170.54,65.93z"/>
		<path class="st0" d="M0,78.24c2.47,0,4.81,0,7.32,0c0,2.85,0,5.67,0,8.58c3.67,0,7.17,0,10.78,0c0-2.82,0-5.59,0-8.5
			c2.48,0,4.86,0,7.35,0c0,7.91,0,15.84,0,23.92c-2.34,0-4.72,0-7.28,0c0-3.02,0-6.06,0-9.18c-3.64,0-7.1,0-10.74,0
			c0,3.02,0,6.06,0,9.2c-2.57,0-4.95,0-7.44,0C0,94.3,0,86.37,0,78.24z"/>
		<path class="st0" d="M49.47,78.26c2.53,0,4.86,0,7.4,0c0.02,0.59,0.08,1.18,0.08,1.76c0.01,3.56-0.12,7.14,0.03,10.7
			c0.33,7.73-4.67,11.25-10.89,11.87c-4.59,0.46-8.96-0.25-12.34-3.87c-1.51-1.62-2.38-3.57-2.42-5.73
			c-0.11-4.85-0.03-9.69-0.03-14.68c2.42,0,4.8,0,7.4,0c0,1.06,0,2.15,0,3.24c0,3.12-0.09,6.25,0.03,9.36
			c0.18,4.78,4.64,7.23,8.5,4.69c1.76-1.16,2.22-3,2.24-4.97C49.5,86.59,49.47,82.52,49.47,78.26z"/>
		<path class="st0" d="M91.98,91.41c0,3.79,0,7.28,0,10.86c-2.54,0-4.91,0-7.39,0c0-7.99,0-15.95,0-24c2.43,0,4.81,0,7.37,0
			c0,3.38,0,6.7,0,10.01c0.12,0.05,0.24,0.1,0.36,0.15c1.92-2.33,4.04-4.55,5.72-7.04c1.66-2.47,3.57-3.75,6.63-3.24
			c1.24,0.21,2.55,0.03,4.15,0.03c-2.56,3.2-4.95,6.18-7.32,9.16c-0.28,0.35-0.5,0.76-0.83,1.05c-0.97,0.84-0.66,1.51,0.06,2.38
			c3.01,3.6,5.96,7.24,8.93,10.86c0.13,0.15,0.24,0.32,0.53,0.75c-3,0-5.72,0.04-8.45-0.04c-0.44-0.01-0.95-0.5-1.27-0.89
			c-2.54-3.05-5.03-6.12-7.56-9.18C92.71,92.04,92.46,91.85,91.98,91.41z"/>
		<path class="st0" d="M216.15,101.68c1.13-2.57,2.16-4.89,3.2-7.21c2.32-5.24,4.68-10.45,6.94-15.71c0.42-0.97,0.95-1.33,2-1.29
			c1.9,0.08,3.82-0.04,5.72,0.06c0.53,0.03,1.3,0.44,1.5,0.9c3.41,7.55,6.74,15.14,10.09,22.72c0.04,0.09,0,0.22-0.02,0.53
			c-2.26,0-4.54,0.05-6.8-0.05c-0.36-0.01-0.81-0.65-1-1.09c-1.63-3.7-1.61-3.72-5.7-3.72c-1.68,0-3.37,0.04-5.05-0.02
			c-0.93-0.03-1.56,0.24-1.72,1.17c-0.57,3.27-2.56,4.28-5.69,3.75C218.57,101.53,217.5,101.68,216.15,101.68z M231.03,83.9
			c-1.23,3.01-2.32,5.7-3.48,8.54c2.38,0,4.51,0,6.9,0C233.32,89.62,232.24,86.92,231.03,83.9z"/>
		<path class="st0" d="M249.06,77.53c4.67,0,9.15-0.16,13.63,0.04c4.49,0.22,7.42,3.52,7.31,7.79c-0.11,4.05-3.24,7.01-7.75,7.23
			c-1.85,0.09-3.69,0.01-5.73,0.01c0,3.02,0,5.95,0,8.96c-2.57,0-4.95,0-7.44,0C249.06,93.58,249.06,85.63,249.06,77.53z
			 M256.5,87.82c1.26,0,2.39,0.12,3.47-0.02c1.85-0.24,2.53-1.06,2.52-2.69c-0.01-1.66-0.71-2.53-2.48-2.76
			c-1.12-0.15-2.29-0.03-3.5-0.03C256.5,84.16,256.5,85.91,256.5,87.82z"/>
		<path class="st0" d="M78.76,85.58c-1.25-0.66-2.27-1.39-3.4-1.74c-1.52-0.46-3.13-0.76-4.72-0.83c-0.55-0.02-1.44,0.72-1.64,1.31
			c-0.16,0.45,0.36,1.34,0.83,1.76c0.65,0.57,1.54,0.87,2.32,1.31c1.65,0.93,3.41,1.73,4.92,2.84c3.74,2.75,3.53,8.25-0.36,10.8
			c-3.29,2.16-6.91,1.97-10.54,1.19c-1.41-0.3-2.79-0.83-4.2-1.26c0-2,0-3.92,0-6.02c1.07,0.52,1.97,1.16,2.96,1.4
			c1.81,0.44,3.68,0.78,5.55,0.9c0.56,0.03,1.45-0.7,1.66-1.29c0.16-0.44-0.35-1.38-0.82-1.75c-0.86-0.67-1.98-1.02-2.93-1.6
			c-1.71-1.04-3.61-1.91-4.99-3.29c-3.01-3.01-2.2-8.16,1.57-10.15c4.45-2.34,8.91-1.46,13.24,0.51c0.26,0.12,0.5,0.6,0.51,0.93
			C78.79,82.2,78.76,83.8,78.76,85.58z"/>
		<path class="st0" d="M151.72,94.85c1.53,0.71,2.74,1.48,4.06,1.83c1.54,0.4,3.19,0.53,4.78,0.53c0.53,0,1.31-0.71,1.49-1.26
			c0.16-0.46-0.23-1.32-0.65-1.71c-0.58-0.55-1.41-0.87-2.16-1.25c-1.14-0.58-2.35-1.05-3.46-1.7c-3.34-1.94-4.68-4.61-4.05-7.88
			c0.55-2.88,3.01-4.98,6.67-5.46c3.12-0.41,6.18,0.01,9.02,1.37c0.54,0.26,1.03,1.1,1.09,1.73c0.16,1.41,0.05,2.86,0.05,4.44
			c-1.34-0.68-2.46-1.43-3.69-1.85c-1.25-0.42-2.61-0.7-3.92-0.66c-0.72,0.02-1.83,0.69-2.01,1.3c-0.16,0.53,0.56,1.63,1.19,2.02
			c1.99,1.24,4.16,2.17,6.17,3.39c1.89,1.14,3.21,2.75,3.3,5.13c0.17,4.29-2.68,7.33-7.46,7.82c-3.29,0.33-6.48-0.25-9.51-1.54
			c-0.4-0.17-0.84-0.75-0.86-1.17C151.65,98.3,151.72,96.69,151.72,94.85z"/>
		<path class="st0" d="M137.15,78.18c-2.89,3.99-5.53,7.71-8.28,11.35c-0.93,1.22-1.35,2.44-1.3,3.97c0.11,2.88,0.03,5.78,0.03,8.77
			c-2.52,0-4.88,0-7.42,0c0-3.19,0.06-6.3-0.04-9.4c-0.03-0.87-0.37-1.86-0.87-2.57c-2.8-3.95-5.69-7.84-8.79-12.07
			c2.7,0,5.12-0.03,7.53,0.04c0.31,0.01,0.65,0.57,0.91,0.92c1.57,2.1,3.11,4.21,4.81,6.5c1.58-2.17,3.09-4.2,4.55-6.26
			c0.63-0.89,1.33-1.34,2.49-1.27C132.76,78.27,134.78,78.18,137.15,78.18z"/>
	</g>
</g>
</svg>
