<?xml version="1.0" encoding="utf-8"?>
<!-- Generator: Adobe Illustrator 28.0.0, SVG Export Plug-In . SVG Version: 6.00 Build 0)  -->
<svg version="1.1" id="Layer_1" xmlns="http://www.w3.org/2000/svg" xmlns:xlink="http://www.w3.org/1999/xlink" x="0px" y="0px"
	 viewBox="0 0 50 50" style="enable-background:new 0 0 50 50;" xml:space="preserve">
<style type="text/css">
	.st0{fill:#E6E7E8;}
</style>
<path class="st0" d="M46.66,10.15c-5.72-8.01-16.85-9.86-24.85-4.14c-8.01,5.72-9.86,16.85-4.14,24.85
	c5.72,8.01,16.85,9.86,24.85,4.14C50.53,29.29,52.38,18.16,46.66,10.15z M22.06,27.73c-3.99-5.58-2.7-13.34,2.89-17.33
	c5.58-3.99,13.34-2.7,17.33,2.89c3.99,5.58,2.7,13.34-2.89,17.33C33.8,34.6,26.04,33.31,22.06,27.73z"/>
<rect x="-0.58" y="34.28" transform="matrix(-0.8137 0.5813 -0.5813 -0.8137 41.5729 60.6325)" class="st0" width="23.31" height="5.39"/>
</svg>
