<?xml version="1.0" encoding="UTF-8"?>
<!-- Created with Inkscape (http://www.inkscape.org/) -->
<svg width="52.068" height="52.068" version="1.1" viewBox="0 0 52.068 52.068" xmlns="http://www.w3.org/2000/svg">
 <rect width="52.068" height="52.068" ry="11.473" fill="#fff" fill-opacity=".93064" opacity=".98467" style="paint-order:stroke fill markers"/>
 <path d="m6.4287 38.87c-1.8129-1.3928-2.4805-3.3023-1.8043-5.1605 0.60932-1.6743 1.7224-2.6296 5.1681-4.4355 5.0441-2.6438 9.5235-4.4254 11.655-4.6355 3.5033-0.34545 7.5956 1.9509 9.0611 5.0846 0.75583 1.6161 1.342 6.9256 1.3414 12.149-2.64e-4 2.0636-0.09688 3.4606-0.30089 4.3506-0.222 0.96846-0.91991 2.1308-1.6436 2.7373-1.2422 1.041-2.6896 1.3101-4.4362 0.82452-0.58469-0.16254-0.92169-0.32078-1.9206-0.90183-1.7002-0.98901-1.9537-1.2681-3.563-3.9232-0.20379-0.33622-0.60478-0.84992-0.89109-1.1416-0.47275-0.48156-0.68571-0.62652-2.3185-1.5782-1.6249-0.94708-1.8678-1.067-2.5238-1.2466-0.39922-0.10926-1.032-0.21225-1.4062-0.22886-3.1435-0.1395-3.5654-0.22529-5.0114-1.0191-0.51242-0.28131-1.1448-0.67524-1.4054-0.87542zm3.8753-16.295c-0.73221-0.75151-1.3664-2.0531-1.6234-3.332-0.66087-3.2881 0.38297-7.2349 2.4477-9.2547 1.688-1.6513 3.7903-1.8374 5.2551-0.46522 1.8481 1.7312 2.5137 5.1075 1.6685 8.464-0.3158 1.2541-0.68149 2.0597-1.4587 3.2134-0.85065 1.2627-1.5704 1.8829-2.6264 2.2632-1.2708 0.45768-2.6853 0.11447-3.6627-0.88868zm24.313 14.157c-0.84002-0.92595-1.0212-2.4213-0.47518-3.9218 0.25308-0.69544 1.1647-2.1661 1.7545-2.8304 1.5114-1.7023 3.7886-3.0646 5.9703-3.5715 2.9488-0.68521 5.1311 0.16619 5.7062 2.2262 0.42204 1.5118-0.20316 3.4666-1.6618 5.1959-3.2939 3.9049-9.0437 5.3821-11.294 2.9016zm-13.009-18.523c-0.91872-0.85228-1.4486-2.2389-1.4836-3.8825-0.11404-5.3512 4.5645-11.52 9.2649-12.216 2.3685-0.35084 4.1623 0.83283 4.8034 3.1695 0.65602 2.391 0.01596 5.4219-1.7494 8.2837-1.8076 2.9304-4.1123 4.833-6.6409 5.4824-1.116 0.28663-2.0824 0.26929-2.9225-0.05243-0.64771-0.24803-0.78531-0.33289-1.2719-0.78428zm12.063 7.0708c-0.89363-0.76277-1.5097-2.2903-1.5571-3.8608-0.06774-2.2462 0.58928-4.433 2.0319-6.7631 1.8136-2.9293 4.247-4.8961 6.7601-5.4638 1.9692-0.44486 3.581 0.093453 4.5831 1.5308 1.2531 1.7971 1.2456 4.7753-0.01967 7.8672-0.38766 0.94728-1.6276 2.9889-2.2781 3.751-2.046 2.397-4.5574 3.8469-6.7407 3.8916-1.0494 0.02152-2.0331-0.31571-2.7796-0.95288z" fill="#8106ff" stroke-width="1.1676"/>
 <text x="21.996893" y="39.391598" fill="#ffffff" font-family="'Mukta Mahee'" font-size="165.33px" font-weight="bold" opacity=".98467" stroke="#8106ff" stroke-linecap="round" stroke-width=".4989" text-align="center" text-anchor="middle" style="font-variant-caps:normal;font-variant-east-asian:normal;font-variant-ligatures:normal;font-variant-numeric:normal;paint-order:stroke fill markers" xml:space="preserve"><tspan x="21.996893" y="39.391598"/></text>
</svg>
